<?xml version="1.0" encoding="utf-8"?>
<!-- Generator: Adobe Illustrator 19.0.0, SVG Export Plug-In . SVG Version: 6.00 Build 0)  -->
<svg version="1.1" id="图层_1" xmlns="http://www.w3.org/2000/svg" xmlns:xlink="http://www.w3.org/1999/xlink" x="0px" y="0px" viewBox="0 0 100 100" style="enable-background:new 0 0 100 100;" xml:space="preserve">
    <style type="text/css">
    .st0 {
        fill: #999999;
    }
    </style>
    <path fill="rgb(153,153,153)"  d="M98.7,92L76.5,72.3c6.2-7.4,9.9-17,9.9-27.4c0-23.6-19.2-42.8-42.8-42.8C20,2.1,0.8,21.3,0.8,44.9
  c0,23.6,19.2,42.8,42.8,42.8c10.7,0,20.5-4,28-10.5L94,97.3c0.6,0.6,1.5,0.9,2.3,0.9c1,0,2-0.4,2.7-1.3
  C100.3,95.5,100.1,93.3,98.7,92z M7.8,44.9c0-19.8,16.1-35.8,35.8-35.8c19.7,0,35.8,16.1,35.8,35.8c0,9.9-4,18.8-10.4,25.2
  c0,0-0.1,0-0.1,0.1c0,0,0,0,0,0c-6.5,6.5-15.4,10.5-25.3,10.5C23.8,80.7,7.8,64.6,7.8,44.9z" />
</svg>
